<?xml version="1.0" encoding="UTF-8" standalone="no"?>
<svg
   xmlns:dc="http://purl.org/dc/elements/1.1/"
   xmlns:cc="http://creativecommons.org/ns#"
   xmlns:rdf="http://www.w3.org/1999/02/22-rdf-syntax-ns#"
   xmlns:svg="http://www.w3.org/2000/svg"
   xmlns="http://www.w3.org/2000/svg"
   id="svg4"
   viewBox="0 0 697.000000 697.000000"
   height="929.333"
   width="929.333"
   version="1">
  <metadata
     id="metadata10">
    <rdf:RDF>
      <cc:Work
         rdf:about="">
        <dc:format>image/svg+xml</dc:format>
        <dc:type
           rdf:resource="http://purl.org/dc/dcmitype/StillImage" />
        <dc:title></dc:title>
      </cc:Work>
    </rdf:RDF>
  </metadata>
  <defs
     id="defs8" />
  <path
     style="fill:#000000;fill-opacity:1"
     id="path2"
     d="M 291.7501,128.4998 C 259.12035,154.45085 252.33043,196.38614 268.2,229.7 c 11.12395,20.29793 32.32727,29.24885 40.80011,37.54985 -36.56595,16.77496 -57.53011,44.33155 -59.25002,85.50003 -1.77838,64.12102 56.47868,91.467 99.00003,111.75004 39.87151,11.6827 56.99316,62.95427 29.25001,96.00003 -8.28965,12.60803 -52.14788,18.05768 -60.60013,-4.19995 -21.73612,-76.01451 -86.49645,-28.5634 -40.6499,24.44996 37.74022,20.30559 82.86095,23.41328 120.75004,-1.5 19.44032,-14.39791 39.56987,-47.70337 36.75001,-81.00003 -5.53921,-34.28839 -21.4429,-44.78456 -49.50002,-66.00002 61.99383,-32.5635 74.45652,-124.43646 21.75001,-155.25006 C 364.5592,249.90487 307.64442,232.63183 300.75011,196.74982 290.8481,145.89728 325.9521,132.17336 357,132.2498 c 29.40633,1.41536 33.74607,31.8798 41.25014,45.75002 31.72169,28.76918 39.619,-12.37961 34.50001,-27.00001 C 415.26091,98.989802 327.84563,104.77506 291.7501,128.4998 Z m 69.75003,292.5001 C 268.95774,381.01565 271.30101,320.71831 331.5,279.24985 c 100.47547,9.35417 81.67411,111.46981 30.00013,141.75005 z M 0.75000026,347.49988 C 42.664217,395.84147 168.85857,539.80643 207.75007,581.49996 c 0.37902,-33.59273 0.82917,-57.36989 0.75,-94.50003 -41.88686,-46.67619 -85.69273,-96.55522 -123.00004,-139.50005 37.58387,-49.87042 85.61892,-98.45817 123.00004,-143.25005 0.63705,-16.36965 -0.56839,-81.03471 -1.5,-93.00004 C 136.89127,195.44151 71.521089,271.04919 0.75000026,347.49988 Z M 487.50017,111.9998 c -0.49348,32.0443 -0.0766,56.35026 -1.7e-4,90.75003 38.75787,45.35593 96.72358,111.80538 123.75021,143.25005 C 568.4583,396.8741 526.8563,446.06682 487.5,490.74993 c 0.91441,10.6116 1.72887,82.29659 1.50017,90.75003 C 544.01547,518.88602 633.62692,420.84172 696.75024,345.99988 645.15898,287.19487 534.88535,164.32884 487.50017,111.9998 Z" />
</svg>
